# xmcd CD database file
#
# Track frame offsets:
#	183
#	11858
#	28758
#	44683
#	56983
#	72783
#	91083
#	103708
#	115683
#	127233
#	137608
#	156933
#	176658
#	200733
#	216708
#	226533
#	240133
#
# Disc length: 3439 seconds
#
# Revision: 0
# Processed by: cddbd v1.5PL3 Copyright (c) Steve Scherf et al.
# Submitted via: CDex 1.51
#
DISCID=f50d6d11
DTITLE=Louis Armstrong - Someday
DYEAR=1995
DGENRE=Jazz
TTITLE0=What a wonderful World
TTITLE1=Indiana
TTITLE2=Blueberry Hill
TTITLE3=A lot of living to do
TTITLE4=Mack the Knife
TTITLE5=Ole miss
TTITLE6=Hello, Dolly
TTITLE7=Mame
TTITLE8=Wilkommen
TTITLE9=No time is a good goodbye time
TTITLE10=cabaret
TTITLE11=a kiss to build a dream on
TTITLE12=Someday (1st version) 
TTITLE13=Pretty little Missy
TTITLE14=you rascal you
TTITLE15=Someday (2nd version)
TTITLE16=When the saints go marchin´in
EXTD=YEAR: 1995
EXTT0=
EXTT1=
EXTT2=
EXTT3=
EXTT4=
EXTT5=
EXTT6=
EXTT7=
EXTT8=
EXTT9=
EXTT10=
EXTT11=
EXTT12=
EXTT13=
EXTT14=
EXTT15=
EXTT16=
PLAYORDER=
